<svg width="136" height="50" viewBox="0 0 136 50" fill="none" xmlns="http://www.w3.org/2000/svg">
<mask id="path-1-inside-1_17_506" fill="white">
<path d="M136 40C136 45.5228 131.523 50 126 50H0V10C0 4.47715 4.47715 0 10 0H136V40Z"/>
</mask>
<path d="M136 40C136 45.5228 131.523 50 126 50H0V10C0 4.47715 4.47715 0 10 0H136V40Z" fill="white"/>
<path d="M139.9 40C139.9 47.6768 133.677 53.9 126 53.9H0V46.1H126C129.369 46.1 132.1 43.3689 132.1 40L139.9 40ZM0 0H136H0ZM139.9 0V40C139.9 47.6768 133.677 53.9 126 53.9L126 46.1C129.369 46.1 132.1 43.3689 132.1 40V0H139.9ZM0 50V0V50Z" fill="#3CC6C9" mask="url(#path-1-inside-1_17_506)"/>
</svg>
