<svg width="1000" height="463" viewBox="0 0 1000 463" fill="none" xmlns="http://www.w3.org/2000/svg">
<rect opacity="0.1" x="35.8306" y="35.8306" width="32.5733" height="32.5733" rx="11" fill="black" fill-opacity="0.8"/>
<rect opacity="0.1" x="35.8306" y="358.306" width="32.5733" height="32.5733" rx="11" fill="black" fill-opacity="0.8"/>
<rect opacity="0.1" x="35.8306" width="32.5733" height="32.5733" rx="11" fill="black" fill-opacity="0.8"/>
<rect opacity="0.2" x="107.492" width="32.5733" height="32.5733" rx="11" fill="black" fill-opacity="0.8"/>
<rect opacity="0.25" x="143.323" width="32.5733" height="32.5733" rx="11" fill="black" fill-opacity="0.8"/>
<rect opacity="0.2" x="107.492" y="71.6611" width="32.5733" height="32.5733" rx="11" fill="black" fill-opacity="0.8"/>
<rect opacity="0.25" x="143.323" y="35.8306" width="32.5733" height="32.5733" rx="11" fill="black" fill-opacity="0.8"/>
<rect opacity="0.25" x="143.323" y="394.137" width="32.5733" height="32.5733" rx="11" fill="black" fill-opacity="0.8"/>
<rect opacity="0.25" x="143.323" y="429.967" width="32.5733" height="32.5733" rx="11" fill="black" fill-opacity="0.8"/>
<rect opacity="0.15" x="71.6613" y="394.137" width="32.5733" height="32.5733" rx="11" fill="black" fill-opacity="0.8"/>
<rect opacity="0.05" y="394.137" width="32.5733" height="32.5733" rx="11" fill="black" fill-opacity="0.8"/>
<rect opacity="0.15" x="71.6613" y="71.6611" width="32.5733" height="32.5733" rx="11" fill="black" fill-opacity="0.8"/>
<rect opacity="0.05" y="71.6611" width="32.5733" height="32.5733" rx="11" fill="black" fill-opacity="0.8"/>
<rect opacity="0.15" x="71.6613" y="35.8306" width="32.5733" height="32.5733" rx="11" fill="black" fill-opacity="0.8"/>
<rect opacity="0.2" x="107.492" y="394.137" width="32.5733" height="32.5733" rx="11" fill="black" fill-opacity="0.8"/>
<rect opacity="0.2" x="107.492" y="429.967" width="32.5733" height="32.5733" rx="11" fill="black" fill-opacity="0.8"/>
<rect opacity="0.25" x="143.323" y="322.476" width="32.5733" height="32.5733" rx="11" fill="black" fill-opacity="0.8"/>
<rect opacity="0.3" x="179.153" y="322.476" width="32.5733" height="32.5733" rx="11" fill="black" fill-opacity="0.8"/>
<rect opacity="0.25" x="143.323" y="71.6611" width="32.5733" height="32.5733" rx="11" fill="black" fill-opacity="0.8"/>
<rect opacity="0.35" x="214.984" y="71.6611" width="32.5733" height="32.5733" rx="11" fill="black" fill-opacity="0.8"/>
<rect opacity="0.35" x="214.984" y="394.137" width="32.5733" height="32.5733" rx="11" fill="black" fill-opacity="0.8"/>
<rect opacity="0.4" x="250.814" y="71.6611" width="32.5733" height="32.5733" rx="11" fill="black" fill-opacity="0.8"/>
<rect opacity="0.45" x="286.645" y="71.6611" width="32.5733" height="32.5733" rx="11" fill="black" fill-opacity="0.8"/>
<rect opacity="0.45" x="286.645" y="394.137" width="32.5733" height="32.5733" rx="11" fill="black" fill-opacity="0.8"/>
<rect opacity="0.5" x="322.476" y="71.6611" width="32.5733" height="32.5733" rx="11" fill="black" fill-opacity="0.8"/>
<rect opacity="0.6" x="394.137" y="143.323" width="32.5733" height="32.5733" rx="11" fill="black" fill-opacity="0.8"/>
<rect opacity="0.75" x="501.629" y="250.814" width="32.5733" height="32.5733" rx="11" fill="black" fill-opacity="0.8"/>
<rect opacity="0.65" x="429.967" y="179.153" width="32.5733" height="32.5733" rx="11" fill="black" fill-opacity="0.8"/>
<rect opacity="0.8" x="537.459" y="286.645" width="32.5733" height="32.5733" rx="11" fill="black" fill-opacity="0.8"/>
<rect opacity="0.7" x="465.798" y="214.984" width="32.5733" height="32.5733" rx="11" fill="black" fill-opacity="0.8"/>
<rect opacity="0.85" x="573.29" y="322.476" width="32.5733" height="32.5733" rx="11" fill="black" fill-opacity="0.8"/>
<rect opacity="0.9" x="609.121" y="358.306" width="32.5733" height="32.5733" rx="11" fill="black" fill-opacity="0.8"/>
<rect x="680.782" y="394.137" width="32.5733" height="32.5733" rx="11" fill="black" fill-opacity="0.8"/>
<rect opacity="0.95" x="644.951" y="107.492" width="32.5733" height="32.5733" rx="11" fill="black" fill-opacity="0.8"/>
<rect x="680.782" y="71.6611" width="32.5733" height="32.5733" rx="11" fill="black" fill-opacity="0.8"/>
<rect x="824.104" y="71.6611" width="32.5733" height="32.5733" rx="11" fill="black" fill-opacity="0.8"/>
<rect x="859.935" y="107.492" width="32.5733" height="32.5733" rx="11" fill="black" fill-opacity="0.8"/>
<rect x="931.596" y="107.492" width="32.5733" height="32.5733" rx="11" fill="black" fill-opacity="0.8"/>
<rect x="895.765" y="107.492" width="32.5733" height="32.5733" rx="11" fill="black" fill-opacity="0.8"/>
<rect x="859.935" y="214.984" width="32.5733" height="32.5733" rx="11" fill="black" fill-opacity="0.8"/>
<rect x="931.596" y="214.984" width="32.5733" height="32.5733" rx="11" fill="black" fill-opacity="0.8"/>
<rect x="895.765" y="214.984" width="32.5733" height="32.5733" rx="11" fill="black" fill-opacity="0.8"/>
<rect x="967.427" y="214.984" width="32.5733" height="32.5733" rx="11" fill="black" fill-opacity="0.8"/>
<rect x="752.443" y="71.6611" width="32.5733" height="32.5733" rx="11" fill="black" fill-opacity="0.8"/>
<rect x="752.831" y="107" width="32.5733" height="32.5733" rx="11" fill="black" fill-opacity="0.8"/>
<rect x="716.612" y="71.6611" width="32.5733" height="32.5733" rx="11" fill="black" fill-opacity="0.8"/>
<rect x="717" y="107" width="32.5733" height="32.5733" rx="11" fill="black" fill-opacity="0.8"/>
<rect x="788.274" y="71.6611" width="32.5733" height="32.5733" rx="11" fill="black" fill-opacity="0.8"/>
<rect x="788.661" y="107" width="32.5733" height="32.5733" rx="11" fill="black" fill-opacity="0.8"/>
<rect x="824.104" y="394.137" width="32.5733" height="32.5733" rx="11" fill="black" fill-opacity="0.8"/>
<rect x="859.935" y="394.137" width="32.5733" height="32.5733" rx="11" fill="black" fill-opacity="0.8"/>
<rect x="895.765" y="394.137" width="32.5733" height="32.5733" rx="11" fill="black" fill-opacity="0.8"/>
<rect x="752.443" y="394.137" width="32.5733" height="32.5733" rx="11" fill="black" fill-opacity="0.8"/>
<rect x="716.612" y="394.137" width="32.5733" height="32.5733" rx="11" fill="black" fill-opacity="0.8"/>
<rect x="788.274" y="394.137" width="32.5733" height="32.5733" rx="11" fill="black" fill-opacity="0.8"/>
<rect opacity="0.95" x="644.951" y="358.306" width="32.5733" height="32.5733" rx="11" fill="black" fill-opacity="0.8"/>
<rect opacity="0.9" x="609.121" y="71.6611" width="32.5733" height="32.5733" rx="11" fill="black" fill-opacity="0.8"/>
<rect opacity="0.55" x="358.306" y="322.476" width="32.5733" height="32.5733" rx="11" fill="black" fill-opacity="0.8"/>
<rect opacity="0.6" x="394.137" y="322.476" width="32.5733" height="32.5733" rx="11" fill="black" fill-opacity="0.8"/>
<rect opacity="0.5" x="322.476" y="358.306" width="32.5733" height="32.5733" rx="11" fill="black" fill-opacity="0.8"/>
<rect opacity="0.3" x="179.153" y="35.8306" width="32.5733" height="32.5733" rx="11" fill="black" fill-opacity="0.8"/>
<rect opacity="0.4" x="250.814" y="35.8306" width="32.5733" height="32.5733" rx="11" fill="black" fill-opacity="0.8"/>
<rect opacity="0.4" x="250.814" y="358.306" width="32.5733" height="32.5733" rx="11" fill="black" fill-opacity="0.8"/>
<rect opacity="0.35" x="214.984" y="35.8306" width="32.5733" height="32.5733" rx="11" fill="black" fill-opacity="0.8"/>
<rect opacity="0.35" x="214.984" y="358.306" width="32.5733" height="32.5733" rx="11" fill="black" fill-opacity="0.8"/>
<rect opacity="0.45" x="286.645" y="358.306" width="32.5733" height="32.5733" rx="11" fill="black" fill-opacity="0.8"/>
<rect opacity="0.5" x="322.476" y="35.8306" width="32.5733" height="32.5733" rx="11" fill="black" fill-opacity="0.8"/>
<rect opacity="0.55" x="358.306" y="71.6611" width="32.5733" height="32.5733" rx="11" fill="black" fill-opacity="0.8"/>
<rect opacity="0.6" x="394.137" y="107.492" width="32.5733" height="32.5733" rx="11" fill="black" fill-opacity="0.8"/>
<rect opacity="0.75" x="501.629" y="214.984" width="32.5733" height="32.5733" rx="11" fill="black" fill-opacity="0.8"/>
<rect opacity="0.65" x="429.967" y="143.323" width="32.5733" height="32.5733" rx="11" fill="black" fill-opacity="0.8"/>
<rect opacity="0.8" x="537.459" y="250.814" width="32.5733" height="32.5733" rx="11" fill="black" fill-opacity="0.8"/>
<rect opacity="0.7" x="465.798" y="179.153" width="32.5733" height="32.5733" rx="11" fill="black" fill-opacity="0.8"/>
<rect opacity="0.85" x="573.29" y="286.645" width="32.5733" height="32.5733" rx="11" fill="black" fill-opacity="0.8"/>
<rect opacity="0.9" x="609.121" y="322.476" width="32.5733" height="32.5733" rx="11" fill="black" fill-opacity="0.8"/>
<rect x="680.782" y="358.306" width="32.5733" height="32.5733" rx="11" fill="black" fill-opacity="0.8"/>
<rect opacity="0.95" x="644.951" y="71.6611" width="32.5733" height="32.5733" rx="11" fill="black" fill-opacity="0.8"/>
<rect x="680.782" y="35.8306" width="32.5733" height="32.5733" rx="11" fill="black" fill-opacity="0.8"/>
<rect x="824.104" y="35.8306" width="32.5733" height="32.5733" rx="11" fill="black" fill-opacity="0.8"/>
<rect x="859.935" y="71.6611" width="32.5733" height="32.5733" rx="11" fill="black" fill-opacity="0.8"/>
<rect x="931.596" y="71.6611" width="32.5733" height="32.5733" rx="11" fill="black" fill-opacity="0.8"/>
<rect x="895.765" y="71.6611" width="32.5733" height="32.5733" rx="11" fill="black" fill-opacity="0.8"/>
<rect x="859.935" y="179.153" width="32.5733" height="32.5733" rx="11" fill="black" fill-opacity="0.8"/>
<rect x="931.596" y="179.153" width="32.5733" height="32.5733" rx="11" fill="black" fill-opacity="0.8"/>
<rect x="895.765" y="179.153" width="32.5733" height="32.5733" rx="11" fill="black" fill-opacity="0.8"/>
<rect x="967.427" y="179.153" width="32.5733" height="32.5733" rx="11" fill="black" fill-opacity="0.8"/>
<rect x="752.443" y="35.8306" width="32.5733" height="32.5733" rx="11" fill="black" fill-opacity="0.8"/>
<rect x="716.612" y="35.8306" width="32.5733" height="32.5733" rx="11" fill="black" fill-opacity="0.8"/>
<rect x="788.274" y="35.8306" width="32.5733" height="32.5733" rx="11" fill="black" fill-opacity="0.8"/>
<rect x="824.104" y="358.306" width="32.5733" height="32.5733" rx="11" fill="black" fill-opacity="0.8"/>
<rect x="859.935" y="358.306" width="32.5733" height="32.5733" rx="11" fill="black" fill-opacity="0.8"/>
<rect x="931.596" y="358.306" width="32.5733" height="32.5733" rx="11" fill="black" fill-opacity="0.8"/>
<rect x="895.765" y="358.306" width="32.5733" height="32.5733" rx="11" fill="black" fill-opacity="0.8"/>
<rect x="752.443" y="358.306" width="32.5733" height="32.5733" rx="11" fill="black" fill-opacity="0.8"/>
<rect x="716.612" y="358.306" width="32.5733" height="32.5733" rx="11" fill="black" fill-opacity="0.8"/>
<rect x="788.274" y="358.306" width="32.5733" height="32.5733" rx="11" fill="black" fill-opacity="0.8"/>
<rect opacity="0.95" x="644.951" y="322.476" width="32.5733" height="32.5733" rx="11" fill="black" fill-opacity="0.8"/>
<rect opacity="0.9" x="609.121" y="35.8306" width="32.5733" height="32.5733" rx="11" fill="black" fill-opacity="0.8"/>
<rect opacity="0.55" x="358.306" y="286.645" width="32.5733" height="32.5733" rx="11" fill="black" fill-opacity="0.8"/>
<rect opacity="0.5" x="322.476" y="322.476" width="32.5733" height="32.5733" rx="11" fill="black" fill-opacity="0.8"/>
<rect opacity="0.4" x="250.814" y="322.476" width="32.5733" height="32.5733" rx="11" fill="black" fill-opacity="0.8"/>
<rect opacity="0.35" x="214.984" width="32.5733" height="32.5733" rx="11" fill="black" fill-opacity="0.8"/>
<rect opacity="0.45" x="286.645" width="32.5733" height="32.5733" rx="11" fill="black" fill-opacity="0.8"/>
<rect opacity="0.45" x="286.645" y="322.476" width="32.5733" height="32.5733" rx="11" fill="black" fill-opacity="0.8"/>
<rect opacity="0.5" x="322.476" width="32.5733" height="32.5733" rx="11" fill="black" fill-opacity="0.8"/>
<rect opacity="0.55" x="358.306" y="35.8306" width="32.5733" height="32.5733" rx="11" fill="black" fill-opacity="0.8"/>
<rect opacity="0.6" x="394.137" y="35.8306" width="32.5733" height="32.5733" rx="11" fill="black" fill-opacity="0.8"/>
<rect opacity="0.75" x="501.629" y="143.323" width="32.5733" height="32.5733" rx="11" fill="black" fill-opacity="0.8"/>
<rect opacity="0.65" x="429.967" y="71.6611" width="32.5733" height="32.5733" rx="11" fill="black" fill-opacity="0.8"/>
<rect opacity="0.8" x="537.459" y="179.153" width="32.5733" height="32.5733" rx="11" fill="black" fill-opacity="0.8"/>
<rect opacity="0.7" x="465.798" y="107.492" width="32.5733" height="32.5733" rx="11" fill="black" fill-opacity="0.8"/>
<rect opacity="0.85" x="573.29" y="214.984" width="32.5733" height="32.5733" rx="11" fill="black" fill-opacity="0.8"/>
<rect opacity="0.9" x="609.121" y="250.814" width="32.5733" height="32.5733" rx="11" fill="black" fill-opacity="0.8"/>
<rect x="680.782" y="286.645" width="32.5733" height="32.5733" rx="11" fill="black" fill-opacity="0.8"/>
<rect x="824.104" y="286.645" width="32.5733" height="32.5733" rx="11" fill="black" fill-opacity="0.8"/>
<rect x="859.935" y="286.645" width="32.5733" height="32.5733" rx="11" fill="black" fill-opacity="0.8"/>
<rect x="931.596" y="286.645" width="32.5733" height="32.5733" rx="11" fill="black" fill-opacity="0.8"/>
<rect x="895.765" y="286.645" width="32.5733" height="32.5733" rx="11" fill="black" fill-opacity="0.8"/>
<rect x="967.427" y="286.645" width="32.5733" height="32.5733" rx="11" fill="black" fill-opacity="0.8"/>
<rect opacity="0.6" x="394.137" y="71.6611" width="32.5733" height="32.5733" rx="11" fill="black" fill-opacity="0.8"/>
<rect opacity="0.75" x="501.629" y="179.153" width="32.5733" height="32.5733" rx="11" fill="black" fill-opacity="0.8"/>
<rect opacity="0.65" x="429.967" y="107.492" width="32.5733" height="32.5733" rx="11" fill="black" fill-opacity="0.8"/>
<rect opacity="0.8" x="537.459" y="214.984" width="32.5733" height="32.5733" rx="11" fill="black" fill-opacity="0.8"/>
<rect opacity="0.7" x="465.798" y="143.323" width="32.5733" height="32.5733" rx="11" fill="black" fill-opacity="0.8"/>
<rect opacity="0.85" x="573.29" y="250.814" width="32.5733" height="32.5733" rx="11" fill="black" fill-opacity="0.8"/>
<rect opacity="0.85" x="573.29" y="71.6611" width="32.5733" height="32.5733" rx="11" fill="black" fill-opacity="0.8"/>
<rect opacity="0.85" x="573.29" y="107.492" width="32.5733" height="32.5733" rx="11" fill="black" fill-opacity="0.8"/>
<rect opacity="0.9" x="609.121" y="286.645" width="32.5733" height="32.5733" rx="11" fill="black" fill-opacity="0.8"/>
<rect x="680.782" y="322.476" width="32.5733" height="32.5733" rx="11" fill="black" fill-opacity="0.8"/>
<rect opacity="0.95" x="644.951" y="35.8306" width="32.5733" height="32.5733" rx="11" fill="black" fill-opacity="0.8"/>
<rect x="680.782" width="32.5733" height="32.5733" rx="11" fill="black" fill-opacity="0.8"/>
<rect x="824.104" width="32.5733" height="32.5733" rx="11" fill="black" fill-opacity="0.8"/>
<rect x="859.935" y="35.8306" width="32.5733" height="32.5733" rx="11" fill="black" fill-opacity="0.8"/>
<rect x="895.765" y="35.8306" width="32.5733" height="32.5733" rx="11" fill="black" fill-opacity="0.8"/>
<rect x="752.443" width="32.5733" height="32.5733" rx="11" fill="black" fill-opacity="0.8"/>
<rect x="716.612" width="32.5733" height="32.5733" rx="11" fill="black" fill-opacity="0.8"/>
<rect x="788.274" width="32.5733" height="32.5733" rx="11" fill="black" fill-opacity="0.8"/>
<rect x="824.104" y="322.476" width="32.5733" height="32.5733" rx="11" fill="black" fill-opacity="0.8"/>
<rect x="859.935" y="322.476" width="32.5733" height="32.5733" rx="11" fill="black" fill-opacity="0.8"/>
<rect x="931.596" y="322.476" width="32.5733" height="32.5733" rx="11" fill="black" fill-opacity="0.8"/>
<rect x="895.765" y="322.476" width="32.5733" height="32.5733" rx="11" fill="black" fill-opacity="0.8"/>
<rect x="752.443" y="322.476" width="32.5733" height="32.5733" rx="11" fill="black" fill-opacity="0.8"/>
<rect x="716.612" y="322.476" width="32.5733" height="32.5733" rx="11" fill="black" fill-opacity="0.8"/>
<rect x="788.274" y="322.476" width="32.5733" height="32.5733" rx="11" fill="black" fill-opacity="0.8"/>
<rect opacity="0.95" x="644.951" y="286.645" width="32.5733" height="32.5733" rx="11" fill="black" fill-opacity="0.8"/>
<rect opacity="0.5" x="322.476" y="286.645" width="32.5733" height="32.5733" rx="11" fill="black" fill-opacity="0.8"/>
<rect opacity="0.3" x="179.153" y="394.137" width="32.5733" height="32.5733" rx="11" fill="black" fill-opacity="0.8"/>
<rect opacity="0.2" x="107.492" y="358.306" width="32.5733" height="32.5733" rx="11" fill="black" fill-opacity="0.8"/>
<rect opacity="0.3" x="179.153" y="358.306" width="32.5733" height="32.5733" rx="11" fill="black" fill-opacity="0.8"/>
<rect opacity="0.4" x="250.814" y="107.492" width="32.5733" height="32.5733" rx="11" fill="black" fill-opacity="0.8"/>
<rect opacity="0.4" x="250.814" y="429.967" width="32.5733" height="32.5733" rx="11" fill="black" fill-opacity="0.8"/>
<rect opacity="0.25" x="143.323" y="107.492" width="32.5733" height="32.5733" rx="11" fill="black" fill-opacity="0.8"/>
<rect opacity="0.3" x="179.153" y="107.492" width="32.5733" height="32.5733" rx="11" fill="black" fill-opacity="0.8"/>
<rect opacity="0.35" x="214.984" y="107.492" width="32.5733" height="32.5733" rx="11" fill="black" fill-opacity="0.8"/>
<rect opacity="0.35" x="214.984" y="429.967" width="32.5733" height="32.5733" rx="11" fill="black" fill-opacity="0.8"/>
<rect opacity="0.45" x="286.645" y="107.492" width="32.5733" height="32.5733" rx="11" fill="black" fill-opacity="0.8"/>
<rect opacity="0.45" x="286.645" y="429.967" width="32.5733" height="32.5733" rx="11" fill="black" fill-opacity="0.8"/>
<rect opacity="0.5" x="322.476" y="107.492" width="32.5733" height="32.5733" rx="11" fill="black" fill-opacity="0.8"/>
<rect opacity="0.55" x="358.306" y="143.323" width="32.5733" height="32.5733" rx="11" fill="black" fill-opacity="0.8"/>
<rect opacity="0.6" x="394.137" y="179.153" width="32.5733" height="32.5733" rx="11" fill="black" fill-opacity="0.8"/>
<rect opacity="0.75" x="501.629" y="286.645" width="32.5733" height="32.5733" rx="11" fill="black" fill-opacity="0.8"/>
<rect opacity="0.65" x="429.967" y="214.984" width="32.5733" height="32.5733" rx="11" fill="black" fill-opacity="0.8"/>
<rect opacity="0.8" x="537.459" y="322.476" width="32.5733" height="32.5733" rx="11" fill="black" fill-opacity="0.8"/>
<rect opacity="0.7" x="465.798" y="250.814" width="32.5733" height="32.5733" rx="11" fill="black" fill-opacity="0.8"/>
<rect opacity="0.85" x="573.29" y="358.306" width="32.5733" height="32.5733" rx="11" fill="black" fill-opacity="0.8"/>
<rect opacity="0.9" x="609.121" y="394.137" width="32.5733" height="32.5733" rx="11" fill="black" fill-opacity="0.8"/>
<rect x="680.782" y="429.967" width="32.5733" height="32.5733" rx="11" fill="black" fill-opacity="0.8"/>
<rect opacity="0.95" x="644.951" y="143.323" width="32.5733" height="32.5733" rx="11" fill="black" fill-opacity="0.8"/>
<rect x="680.782" y="107.492" width="32.5733" height="32.5733" rx="11" fill="black" fill-opacity="0.8"/>
<rect x="680.782" y="143.323" width="32.5733" height="32.5733" rx="11" fill="black" fill-opacity="0.8"/>
<rect x="824.104" y="107.492" width="32.5733" height="32.5733" rx="11" fill="black" fill-opacity="0.8"/>
<rect x="824.492" y="142.831" width="32.5733" height="32.5733" rx="11" fill="black" fill-opacity="0.8"/>
<rect x="859.935" y="143.323" width="32.5733" height="32.5733" rx="11" fill="black" fill-opacity="0.8"/>
<rect x="931.596" y="143.323" width="32.5733" height="32.5733" rx="11" fill="black" fill-opacity="0.8"/>
<rect x="895.765" y="143.323" width="32.5733" height="32.5733" rx="11" fill="black" fill-opacity="0.8"/>
<rect x="967.427" y="143.323" width="32.5733" height="32.5733" rx="11" fill="black" fill-opacity="0.8"/>
<rect x="859.935" y="250.814" width="32.5733" height="32.5733" rx="11" fill="black" fill-opacity="0.8"/>
<rect x="931.596" y="250.814" width="32.5733" height="32.5733" rx="11" fill="black" fill-opacity="0.8"/>
<rect x="895.765" y="250.814" width="32.5733" height="32.5733" rx="11" fill="black" fill-opacity="0.8"/>
<rect x="967.427" y="250.814" width="32.5733" height="32.5733" rx="11" fill="black" fill-opacity="0.8"/>
<rect x="824.104" y="429.967" width="32.5733" height="32.5733" rx="11" fill="black" fill-opacity="0.8"/>
<rect x="752.443" y="429.967" width="32.5733" height="32.5733" rx="11" fill="black" fill-opacity="0.8"/>
<rect x="716.612" y="429.967" width="32.5733" height="32.5733" rx="11" fill="black" fill-opacity="0.8"/>
<rect x="788.274" y="429.967" width="32.5733" height="32.5733" rx="11" fill="black" fill-opacity="0.8"/>
<rect opacity="0.95" x="644.951" y="394.137" width="32.5733" height="32.5733" rx="11" fill="black" fill-opacity="0.8"/>
<rect opacity="0.9" x="609.121" y="107.492" width="32.5733" height="32.5733" rx="11" fill="black" fill-opacity="0.8"/>
<rect opacity="0.9" x="609.121" y="143.323" width="32.5733" height="32.5733" rx="11" fill="black" fill-opacity="0.8"/>
<rect opacity="0.55" x="358.306" y="394.137" width="32.5733" height="32.5733" rx="11" fill="black" fill-opacity="0.8"/>
<rect opacity="0.6" x="394.137" y="394.137" width="32.5733" height="32.5733" rx="11" fill="black" fill-opacity="0.8"/>
<rect opacity="0.5" x="322.476" y="394.137" width="32.5733" height="32.5733" rx="11" fill="black" fill-opacity="0.8"/>
<rect opacity="0.5" x="322.476" y="143.323" width="32.5733" height="32.5733" rx="11" fill="black" fill-opacity="0.8"/>
<rect opacity="0.55" x="358.306" y="179.153" width="32.5733" height="32.5733" rx="11" fill="black" fill-opacity="0.8"/>
<rect opacity="0.6" x="394.137" y="214.984" width="32.5733" height="32.5733" rx="11" fill="black" fill-opacity="0.8"/>
<rect opacity="0.65" x="429.967" y="250.814" width="32.5733" height="32.5733" rx="11" fill="black" fill-opacity="0.8"/>
<rect opacity="0.7" x="465.798" y="286.645" width="32.5733" height="32.5733" rx="11" fill="black" fill-opacity="0.8"/>
<rect opacity="0.55" x="358.306" y="358.306" width="32.5733" height="32.5733" rx="11" fill="black" fill-opacity="0.8"/>
<rect opacity="0.6" x="394.137" y="358.306" width="32.5733" height="32.5733" rx="11" fill="black" fill-opacity="0.8"/>
<rect opacity="0.65" x="429.967" y="358.306" width="32.5733" height="32.5733" rx="11" fill="black" fill-opacity="0.8"/>
<rect opacity="0.5" x="322.476" y="429.967" width="32.5733" height="32.5733" rx="11" fill="black" fill-opacity="0.8"/>
</svg>
