<svg width="136" height="50" viewBox="0 0 136 50" fill="none" xmlns="http://www.w3.org/2000/svg">
<mask id="path-1-inside-1_17_505" fill="white">
<path d="M0 10C0 4.47715 4.47715 0 10 0H136V40C136 45.5228 131.523 50 126 50H0V10Z"/>
</mask>
<path d="M0 10C0 4.47715 4.47715 0 10 0H136V40C136 45.5228 131.523 50 126 50H0V10Z" fill="white"/>
<path d="M-3.9 10C-3.9 2.32324 2.32324 -3.9 10 -3.9H136V3.9H10C6.63106 3.9 3.9 6.63106 3.9 10L-3.9 10ZM136 50H0H136ZM-3.9 50V10C-3.9 2.32324 2.32324 -3.9 10 -3.9L10 3.9C6.63106 3.9 3.9 6.63106 3.9 10V50H-3.9ZM136 0V50V0Z" fill="#3CC6C9" mask="url(#path-1-inside-1_17_505)"/>
</svg>
