<svg width="128" height="128" viewBox="0 0 128 128" fill="none" xmlns="http://www.w3.org/2000/svg">
<path d="M31.082 37.3388L44.6074 50.8641L37.066 58.4055L10.666 32.0055L37.066 5.60547L44.6074 13.1468L31.082 26.6721H69.3327C80.6486 26.6721 91.501 31.1674 99.5026 39.1689C107.504 47.1705 111.999 58.0229 111.999 69.3388C111.999 80.6547 107.504 91.5071 99.5026 99.5087C91.501 107.51 80.6486 112.005 69.3327 112.005H21.3327V101.339H69.3327C77.8196 101.339 85.9589 97.9674 91.9601 91.9662C97.9613 85.9651 101.333 77.8257 101.333 69.3388C101.333 60.8519 97.9613 52.7126 91.9601 46.7114C85.9589 40.7102 77.8196 37.3388 69.3327 37.3388H31.082Z" fill="#FF6B6B"/>
</svg>
