<svg width="116" height="116" viewBox="0 0 116 116" fill="none" xmlns="http://www.w3.org/2000/svg">
<path d="M57.9998 115.334C26.3732 115.334 0.666504 89.627 0.666504 58.0003C0.666504 26.3737 26.3732 0.666992 57.9998 0.666992C89.6265 0.666992 115.333 26.3737 115.333 58.0003C115.333 89.627 89.6265 115.334 57.9998 115.334ZM57.9998 8.66699C30.7998 8.66699 8.6665 30.8003 8.6665 58.0003C8.6665 85.2003 30.7998 107.334 57.9998 107.334C85.1998 107.334 107.333 85.2003 107.333 58.0003C107.333 30.8003 85.1998 8.66699 57.9998 8.66699Z" fill="#C4C4C4"/>
<path d="M59.2809 83.3337C45.3078 83.3337 33.9478 71.9737 33.9478 58.0003C33.9478 44.027 45.3078 32.667 59.2809 32.667C65.4143 32.667 71.3876 34.907 75.9743 39.0137C77.6276 40.4537 77.7876 43.0137 76.3476 44.667C74.9076 46.3203 72.3476 46.4804 70.6943 45.0404C67.5476 42.267 63.4943 40.7204 59.2809 40.7204C49.7343 40.7204 41.9478 48.507 41.9478 58.0537C41.9478 67.6003 49.7343 75.387 59.2809 75.387C63.4409 75.387 67.5476 73.8403 70.6943 71.067C72.3476 69.627 74.9076 69.787 76.3476 71.4403C77.7876 73.0937 77.6276 75.6537 75.9743 77.0937C71.3343 81.0937 65.4143 83.3337 59.2809 83.3337Z" fill="#C4C4C4"/>
</svg>
