<svg width="128" height="128" viewBox="0 0 128 128" fill="none" xmlns="http://www.w3.org/2000/svg">
<path d="M42.6668 88.0003C41.612 88.0003 40.5809 88.3131 39.7038 88.8991C38.8267 89.4852 38.1431 90.3181 37.7395 91.2927C37.3358 92.2672 37.2302 93.3396 37.436 94.3741C37.6418 95.4087 38.1497 96.359 38.8956 97.1049C39.6415 97.8508 40.5918 98.3587 41.6263 98.5645C42.6609 98.7703 43.7333 98.6647 44.7078 98.261C45.6823 97.8573 46.5153 97.1738 47.1013 96.2967C47.6874 95.4196 48.0002 94.3885 48.0002 93.3337C48.0002 91.9192 47.4383 90.5626 46.4381 89.5624C45.4379 88.5622 44.0813 88.0003 42.6668 88.0003ZM64.0002 10.667C42.6668 10.667 21.3335 17.9737 21.3335 32.0003V96.0003C21.3335 110.027 42.6668 117.334 64.0002 117.334C85.3335 117.334 106.667 110.027 106.667 96.0003V32.0003C106.667 17.9737 85.3335 10.667 64.0002 10.667ZM96.0002 96.0003C96.0002 99.787 83.8402 106.667 64.0002 106.667C44.1602 106.667 32.0002 99.787 32.0002 96.0003V78.5603C41.9845 83.3068 52.9489 85.6276 64.0002 85.3337C75.0514 85.6276 86.0158 83.3068 96.0002 78.5603V96.0003ZM96.0002 64.0003C96.0002 67.787 83.8402 74.667 64.0002 74.667C44.1602 74.667 32.0002 67.787 32.0002 64.0003V46.5603C41.9845 51.3068 52.9489 53.6276 64.0002 53.3337C75.0514 53.6276 86.0158 51.3068 96.0002 46.5603V64.0003ZM64.0002 42.667C44.1602 42.667 32.0002 35.787 32.0002 32.0003C32.0002 28.2137 44.1602 21.3337 64.0002 21.3337C83.8402 21.3337 96.0002 28.2137 96.0002 32.0003C96.0002 35.787 83.8402 42.667 64.0002 42.667ZM42.6668 56.0003C41.612 56.0003 40.5809 56.3131 39.7038 56.8992C38.8267 57.4852 38.1431 58.3181 37.7395 59.2927C37.3358 60.2672 37.2302 61.3396 37.436 62.3741C37.6418 63.4087 38.1497 64.359 38.8956 65.1049C39.6415 65.8508 40.5918 66.3587 41.6263 66.5645C42.6609 66.7703 43.7333 66.6647 44.7078 66.261C45.6823 65.8573 46.5153 65.1738 47.1013 64.2967C47.6874 63.4196 48.0002 62.3885 48.0002 61.3337C48.0002 59.9192 47.4383 58.5626 46.4381 57.5624C45.4379 56.5622 44.0813 56.0003 42.6668 56.0003Z" fill="#C4C4C4"/>
</svg>
