<svg width="128" height="128" viewBox="0 0 128 128" fill="none" xmlns="http://www.w3.org/2000/svg">
<path fill-rule="evenodd" clip-rule="evenodd" d="M4 79.2002C5.06087 79.2002 6.07828 79.6216 6.82843 80.3718C7.57857 81.1219 8 82.1393 8 83.2002V103.2C8 105.322 8.84285 107.357 10.3431 108.857C11.8434 110.357 13.8783 111.2 16 111.2H112C114.122 111.2 116.157 110.357 117.657 108.857C119.157 107.357 120 105.322 120 103.2V83.2002C120 82.1393 120.421 81.1219 121.172 80.3718C121.922 79.6216 122.939 79.2002 124 79.2002C125.061 79.2002 126.078 79.6216 126.828 80.3718C127.579 81.1219 128 82.1393 128 83.2002V103.2C128 107.444 126.314 111.513 123.314 114.514C120.313 117.514 116.243 119.2 112 119.2H16C11.7565 119.2 7.68687 117.514 4.68629 114.514C1.68571 111.513 0 107.444 0 103.2V83.2002C0 82.1393 0.421427 81.1219 1.17157 80.3718C1.92172 79.6216 2.93913 79.2002 4 79.2002Z" fill="#4CAF50"/>
<path fill-rule="evenodd" clip-rule="evenodd" d="M61.1682 94.832C61.5397 95.2045 61.9811 95.5 62.4671 95.7017C62.9531 95.9034 63.474 96.0071 64.0002 96.0071C64.5263 96.0071 65.0473 95.9034 65.5332 95.7017C66.0192 95.5 66.4606 95.2045 66.8322 94.832L90.8322 70.832C91.5833 70.0809 92.0052 69.0622 92.0052 68C92.0052 66.9378 91.5833 65.9191 90.8322 65.168C90.0811 64.4169 89.0624 63.9949 88.0002 63.9949C86.938 63.9949 85.9193 64.4169 85.1682 65.168L68.0002 82.344V12C68.0002 10.9391 67.5787 9.92172 66.8286 9.17157C66.0785 8.42143 65.061 8 64.0002 8C62.9393 8 61.9219 8.42143 61.1717 9.17157C60.4216 9.92172 60.0002 10.9391 60.0002 12V82.344L42.8322 65.168C42.0811 64.4169 41.0624 63.9949 40.0002 63.9949C38.938 63.9949 37.9193 64.4169 37.1682 65.168C36.4171 65.9191 35.9951 66.9378 35.9951 68C35.9951 69.0622 36.4171 70.0809 37.1682 70.832L61.1682 94.832Z" fill="#4CAF50"/>
</svg>
