<svg width="128" height="128" viewBox="0 0 128 128" fill="none" xmlns="http://www.w3.org/2000/svg">
<mask id="mask0_120_4" style="mask-type:luminance" maskUnits="userSpaceOnUse" x="0" y="0" width="128" height="128">
<path d="M0 0H128V128H0V0Z" fill="white"/>
</mask>
<g mask="url(#mask0_120_4)">
<path d="M68.5731 82.2868L41.1445 87.224L45.716 59.4297L98.1045 7.22397C98.9548 6.36703 99.966 5.68685 101.08 5.22268C102.194 4.75851 103.389 4.51953 104.596 4.51953C105.803 4.51953 106.998 4.75851 108.112 5.22268C109.226 5.68685 110.237 6.36703 111.087 7.22397L120.779 16.9154C121.636 17.7653 122.316 18.7765 122.78 19.8907C123.245 21.0048 123.483 22.1999 123.483 23.4068C123.483 24.6138 123.245 25.8088 122.78 26.923C122.316 28.0371 121.636 29.0483 120.779 29.8983L68.5731 82.2868Z" stroke="#F4B400" stroke-width="8" stroke-linecap="round" stroke-linejoin="round"/>
<path d="M109.715 86.8566V114.285C109.715 116.71 108.751 119.036 107.037 120.75C105.323 122.464 102.997 123.428 100.572 123.428H13.7151C11.2903 123.428 8.96477 122.464 7.25014 120.75C5.53553 119.036 4.57227 116.71 4.57227 114.285V27.428C4.57227 25.0031 5.53553 22.6777 7.25014 20.963C8.96477 19.2484 11.2903 18.2852 13.7151 18.2852H41.1437" stroke="#F4B400" stroke-width="8" stroke-linecap="round" stroke-linejoin="round"/>
</g>
</svg>
