<svg width="138" height="129" viewBox="0 0 138 129" fill="none" xmlns="http://www.w3.org/2000/svg">
<path d="M18.7144 51.8525V119.281C18.7144 120.494 19.196 121.656 20.0533 122.514C20.9106 123.371 22.0734 123.853 23.2858 123.853H50.7144V84.9954C50.7144 83.1768 51.4368 81.4326 52.7228 80.1467C54.0087 78.8607 55.7529 78.1383 57.5715 78.1383H80.4286C82.2473 78.1383 83.9914 78.8607 85.2774 80.1467C86.5633 81.4326 87.2858 83.1768 87.2858 84.9954V123.853H114.714C115.927 123.853 117.09 123.371 117.947 122.514C118.804 121.656 119.286 120.494 119.286 119.281V51.8525" stroke="#7A7A7A" stroke-width="10" stroke-linecap="round" stroke-linejoin="round"/>
<path d="M133 64.4236L72.1114 6.13787C70.6829 4.62929 67.3429 4.61215 65.8886 6.13787L5 64.4236" stroke="#7A7A7A" stroke-width="10" stroke-linecap="round" stroke-linejoin="round"/>
<path d="M110.143 42.4236V9.56641H96.4287V29.2807" stroke="#7A7A7A" stroke-width="10" stroke-linecap="round" stroke-linejoin="round"/>
</svg>
