<svg width="118" height="107" viewBox="0 0 118 107" fill="none" xmlns="http://www.w3.org/2000/svg">
<path d="M42.6667 69.3333C41.6118 69.3333 40.5807 69.6461 39.7036 70.2322C38.8266 70.8182 38.143 71.6511 37.7393 72.6257C37.3356 73.6002 37.23 74.6726 37.4358 75.7071C37.6416 76.7417 38.1496 77.692 38.8954 78.4379C39.6413 79.1838 40.5916 79.6917 41.6262 79.8975C42.6608 80.1033 43.7331 79.9977 44.7076 79.594C45.6822 79.1904 46.5151 78.5068 47.1012 77.6297C47.6872 76.7526 48 75.7215 48 74.6667C48 73.2522 47.4381 71.8956 46.4379 70.8954C45.4377 69.8952 44.0812 69.3333 42.6667 69.3333ZM5.33333 64C3.91885 64 2.56229 64.5619 1.5621 65.5621C0.561903 66.5623 0 67.9188 0 69.3333V80C0 81.4145 0.561903 82.771 1.5621 83.7712C2.56229 84.7714 3.91885 85.3333 5.33333 85.3333C6.74782 85.3333 8.10438 84.7714 9.10457 83.7712C10.1048 82.771 10.6667 81.4145 10.6667 80V69.3333C10.6667 67.9188 10.1048 66.5623 9.10457 65.5621C8.10438 64.5619 6.74782 64 5.33333 64ZM112 64C110.586 64 109.229 64.5619 108.229 65.5621C107.229 66.5623 106.667 67.9188 106.667 69.3333V80C106.667 81.4145 107.229 82.771 108.229 83.7712C109.229 84.7714 110.586 85.3333 112 85.3333C113.414 85.3333 114.771 84.7714 115.771 83.7712C116.771 82.771 117.333 81.4145 117.333 80V69.3333C117.333 67.9188 116.771 66.5623 115.771 65.5621C114.771 64.5619 113.414 64 112 64ZM85.3333 26.6667H64V19.84C65.6121 18.9093 66.9526 17.5729 67.8883 15.9636C68.8239 14.3543 69.3221 12.5281 69.3333 10.6667C69.3333 7.83769 68.2095 5.12458 66.2091 3.12419C64.2088 1.12381 61.4956 0 58.6667 0C55.8377 0 53.1246 1.12381 51.1242 3.12419C49.1238 5.12458 48 7.83769 48 10.6667C48.0112 12.5281 48.5094 14.3543 49.4451 15.9636C50.3807 17.5729 51.7212 18.9093 53.3333 19.84V26.6667H32C27.7565 26.6667 23.6869 28.3524 20.6863 31.353C17.6857 34.3535 16 38.4232 16 42.6667V90.6667C16 94.9101 17.6857 98.9798 20.6863 101.98C23.6869 104.981 27.7565 106.667 32 106.667H85.3333C89.5768 106.667 93.6465 104.981 96.647 101.98C99.6476 98.9798 101.333 94.9101 101.333 90.6667V42.6667C101.333 38.4232 99.6476 34.3535 96.647 31.353C93.6465 28.3524 89.5768 26.6667 85.3333 26.6667ZM67.84 37.3333L65.1733 48H52.16L49.4933 37.3333H67.84ZM90.6667 90.6667C90.6667 92.0811 90.1048 93.4377 89.1046 94.4379C88.1044 95.4381 86.7478 96 85.3333 96H32C30.5855 96 29.229 95.4381 28.2288 94.4379C27.2286 93.4377 26.6667 92.0811 26.6667 90.6667V42.6667C26.6667 41.2522 27.2286 39.8956 28.2288 38.8954C29.229 37.8952 30.5855 37.3333 32 37.3333H38.5067L42.6667 54.6133C42.9587 55.7967 43.6472 56.8443 44.6176 57.5818C45.588 58.3193 46.7817 58.7022 48 58.6667H69.3333C70.5517 58.7022 71.7454 58.3193 72.7158 57.5818C73.6862 56.8443 74.3747 55.7967 74.6667 54.6133L78.8267 37.3333H85.3333C86.7478 37.3333 88.1044 37.8952 89.1046 38.8954C90.1048 39.8956 90.6667 41.2522 90.6667 42.6667V90.6667ZM74.6667 69.3333C73.6118 69.3333 72.5807 69.6461 71.7036 70.2322C70.8266 70.8182 70.143 71.6511 69.7393 72.6257C69.3356 73.6002 69.23 74.6726 69.4358 75.7071C69.6416 76.7417 70.1496 77.692 70.8954 78.4379C71.6413 79.1838 72.5916 79.6917 73.6262 79.8975C74.6608 80.1033 75.7331 79.9977 76.7076 79.594C77.6822 79.1904 78.5151 78.5068 79.1012 77.6297C79.6872 76.7526 80 75.7215 80 74.6667C80 73.2522 79.4381 71.8956 78.4379 70.8954C77.4377 69.8952 76.0812 69.3333 74.6667 69.3333Z" fill="#C4C4C4"/>
</svg>
