<svg width="130" height="130" viewBox="0 0 130 130" fill="none" xmlns="http://www.w3.org/2000/svg">
<path d="M31.0027 116.162C39.2074 116.162 46.0667 110.406 47.7653 102.712L49.6586 102.646C53.2937 102.521 56.916 102.156 60.5021 101.554V125.663C60.5021 128.375 63.241 130.23 65.759 129.223L99.0916 115.888C100.547 115.306 101.501 113.896 101.501 112.329V82.326C101.501 82.2313 101.498 82.1372 101.491 82.044C122.541 63.4495 133.59 34.5858 128.103 4.95475C127.814 3.39374 126.593 2.17236 125.032 1.88327C121.002 1.13694 116.923 0.69131 112.827 0.55006C87.1211 -0.336442 63.7519 10.612 47.9636 28.4993C47.8663 28.4919 47.768 28.4881 47.669 28.4881H17.6696C16.1021 28.4881 14.6926 29.4425 14.1105 30.898L0.777448 64.2342C-0.229681 66.7523 1.62458 69.4916 4.33655 69.4916H28.4338C27.8439 73.0324 27.4777 76.6522 27.3507 80.3363L27.2854 82.2298C19.5918 83.9286 13.8363 90.7887 13.8363 98.9941V112.329C13.8363 114.446 15.5525 116.162 17.6696 116.162H31.0027ZM21.5029 108.495V98.9941C21.5029 94.2486 24.9822 90.315 29.5285 89.6069L40.3889 100.468C39.6808 105.015 35.7477 108.495 31.0027 108.495H21.5029ZM93.8347 88.0423V109.733L68.1686 120.001V99.8928C77.5661 97.3903 86.1986 93.3282 93.8347 88.0423ZM30.0894 61.8243H9.99838L20.2649 36.1554H41.9659C36.6357 43.8497 32.5724 52.5035 30.0894 61.8243ZM49.3944 94.9838L45.8684 95.1054L34.8911 84.1269L35.0127 80.6005C36.4403 39.194 71.1607 6.78494 112.563 8.21274C115.39 8.31024 118.208 8.56758 121.005 8.98327C126.942 48.7622 100.324 86.3927 60.4678 93.7742C56.8117 94.4513 53.1104 94.8556 49.3944 94.9838ZM60.5021 48.9898C60.5021 60.3126 69.68 69.4916 81.0016 69.4916C92.3233 69.4916 101.501 60.3126 101.501 48.9898C101.501 37.6671 92.3233 28.4881 81.0016 28.4881C69.68 28.4881 60.5021 37.6671 60.5021 48.9898ZM93.8347 48.9898C93.8347 56.0782 88.0891 61.8243 81.0016 61.8243C73.9142 61.8243 68.1686 56.0782 68.1686 48.9898C68.1686 41.9015 73.9142 36.1554 81.0016 36.1554C88.0891 36.1554 93.8347 41.9015 93.8347 48.9898Z" fill="#DB4437" stroke="#DB4437"/>
</svg>
