<svg width="128" height="128" viewBox="0 0 128 128" fill="none" xmlns="http://www.w3.org/2000/svg">
<path d="M0 18.2857C0 8.18679 8.18679 0 18.2857 0H94.891C99.7403 0 104.391 1.92649 107.821 5.35579L122.644 20.1793C126.074 23.6085 128 28.2596 128 33.1092V109.714C128 119.813 119.813 128 109.714 128H18.2857C8.18679 128 0 119.813 0 109.714V18.2857ZM18.2857 9.14286C13.2363 9.14286 9.14286 13.2363 9.14286 18.2857V109.714C9.14286 114.764 13.2363 118.857 18.2857 118.857V77.7143C18.2857 70.1403 24.4258 64 32 64H96C103.574 64 109.714 70.1403 109.714 77.7143V118.857C114.764 118.857 118.857 114.764 118.857 109.714V33.1092C118.857 30.6843 117.893 28.3589 116.179 26.6442L101.356 11.8207C99.6416 10.1061 97.3157 9.14286 94.891 9.14286H91.4286V32C91.4286 39.5742 85.2882 45.7143 77.7143 45.7143H41.1429C33.5686 45.7143 27.4286 39.5742 27.4286 32V9.14286H18.2857ZM36.5714 9.14286V32C36.5714 34.5247 38.6181 36.5714 41.1429 36.5714H77.7143C80.2386 36.5714 82.2857 34.5247 82.2857 32V9.14286H36.5714ZM100.571 118.857V77.7143C100.571 75.1899 98.5243 73.1429 96 73.1429H32C29.4753 73.1429 27.4286 75.1899 27.4286 77.7143V118.857H100.571Z" fill="#FFA500"/>
</svg>
