<svg width="109" height="128" viewBox="0 0 109 128" fill="none" xmlns="http://www.w3.org/2000/svg">
<path d="M82.1075 128H26.5521C18.5041 128 11.9291 121.694 11.4988 113.753L11.4973 113.715L6.35461 21.7316H102.303L97.1831 113.732C96.7452 121.703 90.1754 128 82.1346 128H82.1061H82.1076L82.1075 128ZM15.3771 30.2652L20.0192 113.254C20.1997 116.722 23.0542 119.465 26.5498 119.467H82.1016C85.5916 119.465 88.4429 116.731 88.6316 113.288L88.6325 113.271L93.2804 30.2649L15.3771 30.2652ZM108.657 30.2652H0V21.7317H108.657V30.2652ZM43.463 0.000125169H65.1944C73.5479 0.00987514 80.3172 6.77886 80.3269 15.1316V30.2649H28.3305V15.1325C28.3403 6.77898 35.1093 0.00974997 43.462 0H43.4629L43.463 0.000125169ZM71.7935 21.7317V15.1326C71.7903 11.4893 68.8377 8.53673 65.1948 8.53347H43.463C39.8198 8.5366 36.8671 11.4892 36.8639 15.1322V21.7316L71.7935 21.7317ZM58.5953 107.463H50.062V42.2685H58.5953V107.463ZM80.3269 107.463H71.7935V42.2685H80.3269V107.463ZM36.8639 107.463H28.3305V42.2685H36.8639V107.463Z" fill="#DB4437"/>
</svg>
