<svg width="136" height="136" viewBox="0 0 136 136" fill="none" xmlns="http://www.w3.org/2000/svg">
<path d="M68 4C32.6538 4 4 32.6538 4 68C4 103.346 32.6538 132 68 132C103.346 132 132 103.346 132 68C132 32.6538 103.346 4 68 4Z" stroke="#4285F4" stroke-width="8" stroke-linecap="round" stroke-linejoin="round"/>
<path d="M18.5352 108.611C18.5352 108.611 32.8009 90.3984 68.0008 90.3984C103.201 90.3984 117.467 108.611 117.467 108.611" stroke="#4285F4" stroke-width="8" stroke-linecap="round" stroke-linejoin="round"/>
<path d="M68.0008 68.0016C78.6049 68.0016 87.2008 59.4057 87.2008 48.8016C87.2008 38.1977 78.6049 29.6016 68.0008 29.6016C57.3966 29.6016 48.8008 38.1977 48.8008 48.8016C48.8008 59.4057 57.3966 68.0016 68.0008 68.0016Z" stroke="#4285F4" stroke-width="8" stroke-linecap="round" stroke-linejoin="round"/>
</svg>
