<svg width="128" height="128" viewBox="0 0 128 128" fill="none" xmlns="http://www.w3.org/2000/svg">
<path d="M53.3332 21.3337C47.6752 21.3337 42.249 23.5813 38.2482 27.582C34.2474 31.5828 31.9998 37.009 31.9998 42.667C31.9998 48.3249 34.2474 53.7512 38.2482 57.7519C42.249 61.7527 47.6752 64.0003 53.3332 64.0003C58.9911 64.0003 64.4173 61.7527 68.4181 57.7519C72.4189 53.7512 74.6665 48.3249 74.6665 42.667C74.6665 37.009 72.4189 31.5828 68.4181 27.582C64.4173 23.5813 58.9911 21.3337 53.3332 21.3337ZM21.3332 42.667C21.3332 34.1801 24.7046 26.0407 30.7058 20.0396C36.7069 14.0384 44.8462 10.667 53.3332 10.667C61.8201 10.667 69.9594 14.0384 75.9606 20.0396C81.9618 26.0407 85.3332 34.1801 85.3332 42.667C85.3332 51.1539 81.9618 59.2932 75.9606 65.2944C69.9594 71.2956 61.8201 74.667 53.3332 74.667C44.8462 74.667 36.7069 71.2956 30.7058 65.2944C24.7046 59.2932 21.3332 51.1539 21.3332 42.667ZM89.7492 20.0377C90.2445 19.5418 90.8327 19.1484 91.4802 18.88C92.1276 18.6116 92.8216 18.4735 93.5225 18.4735C94.2234 18.4735 94.9174 18.6116 95.5649 18.88C96.2123 19.1484 96.8005 19.5418 97.2958 20.0377C100.268 23.0092 102.625 26.5371 104.234 30.4199C105.842 34.3026 106.67 38.4642 106.67 42.667C106.67 46.8697 105.842 51.0313 104.234 54.9141C102.625 58.7969 100.268 62.3248 97.2958 65.2963C96.8003 65.7918 96.212 66.1849 95.5646 66.4531C94.9172 66.7213 94.2233 66.8593 93.5225 66.8593C92.8217 66.8593 92.1278 66.7213 91.4804 66.4531C90.833 66.1849 90.2447 65.7918 89.7492 65.2963C89.2536 64.8008 88.8606 64.2125 88.5924 63.5651C88.3242 62.9177 88.1862 62.2238 88.1862 61.523C88.1862 60.8222 88.3242 60.1283 88.5924 59.4809C88.8606 58.8335 89.2536 58.2452 89.7492 57.7497C93.7486 53.7491 95.9953 48.3238 95.9953 42.667C95.9953 37.0102 93.7486 31.5849 89.7492 27.5843C89.2533 27.089 88.8599 26.5008 88.5915 25.8533C88.3231 25.2059 88.185 24.5119 88.185 23.811C88.185 23.1101 88.3231 22.4161 88.5915 21.7686C88.8599 21.1212 89.2533 20.533 89.7492 20.0377ZM93.4932 89.371C93.837 88.0001 94.7109 86.8218 95.9229 86.0948C97.1349 85.3678 98.5859 85.1516 99.9572 85.4937C107.04 87.2643 111.525 91.787 114.101 96.9497C116.597 101.936 117.333 107.51 117.333 112C117.333 113.415 116.771 114.771 115.771 115.772C114.771 116.772 113.414 117.334 112 117.334C110.585 117.334 109.229 116.772 108.229 115.772C107.228 114.771 106.667 113.415 106.667 112C106.667 108.496 106.069 104.731 104.565 101.718C103.141 98.875 100.955 96.7363 97.3705 95.8403C95.9996 95.4965 94.8213 94.6226 94.0943 93.4106C93.3673 92.1986 93.1511 90.7423 93.4932 89.371ZM34.6665 96.0003C27.9465 96.0003 21.3332 102.47 21.3332 112C21.3332 113.415 20.7713 114.771 19.7711 115.772C18.7709 116.772 17.4143 117.334 15.9998 117.334C14.5853 117.334 13.2288 116.772 12.2286 115.772C11.2284 114.771 10.6665 113.415 10.6665 112C10.6665 97.963 20.7625 85.3337 34.6665 85.3337H71.9998C85.9038 85.3337 95.9998 97.963 95.9998 112C95.9998 113.415 95.4379 114.771 94.4377 115.772C93.4376 116.772 92.081 117.334 90.6665 117.334C89.252 117.334 87.8955 116.772 86.8953 115.772C85.8951 114.771 85.3332 113.415 85.3332 112C85.3332 102.47 78.7198 96.0003 71.9998 96.0003H34.6665Z" fill="#C4C4C4"/>
</svg>
